<svg width="563" height="70" viewBox="0 0 563 70" fill="none" xmlns="http://www.w3.org/2000/svg">
<path d="M193.198 63.017C167.698 63.517 116.495 64.4438 115.698 64.517C106.021 65.4067 55.5011 65.2722 44.6982 64.017C32.8294 62.0251 25.1398 60.0898 18.0605 56.2499C11.1147 52.4825 3.3566 45.7429 5.27379 38.0772V38.0772C6.99342 31.2015 14.3473 27.7304 20.8499 24.9109C34.5435 18.9737 45.93 16.9127 64.6982 15.517C99.8651 11.9254 119.578 10.503 154.698 9.01705L268.198 5.01705L373.698 4.01705C406.84 3.91299 425.223 4.26982 457.698 5.51705C479.355 6.17675 490.988 7.27496 511.198 10.017C525.265 11.8717 533.906 13.5898 544.789 16.941C549.978 18.5386 555.581 22.349 557.759 27.3219V27.3219C560.082 32.6274 557.822 38.029 553.3 41.6472C550.282 44.0611 547.159 44.9844 542.698 45.517C505.022 49.198 484.253 49.9819 447.698 49.517L336.698 51.017H280.198" stroke="#FFADF2" stroke-width="8" stroke-linecap="round"/>
</svg>
