<svg width="773" height="515" viewBox="0 0 773 515" fill="none" xmlns="http://www.w3.org/2000/svg">
<g clip-path="url(#clip0_1562_12)">
<path d="M303.5 99.0001C301.453 100.755 300.466 103.094 298.5 104.5M303.5 99.0001L298.5 104.5M303.5 99.0001C306.525 93.9228 307.458 91.0753 308.5 86.0001C310.077 79.3366 311.762 75.8897 315.5 70.0001C316.087 63.5073 317.474 60.0142 321.5 54.0001L326 43.5001C329.898 38.758 332.786 37.7618 339 38.5001C340.755 33.904 342.778 32.3126 348 31C350.032 22.9472 354.277 19.8707 367.5 17C392.619 17.2198 406.204 20.3808 414.5 29C419.932 29.4661 421.861 30.9445 424 35C429.634 37.6241 431.358 40.2247 433 46C438.416 51.9651 439.979 55.2394 440 61C447.572 72.7627 449.277 78.3511 449 87C453.355 96.5079 453.837 101.631 452 110.5V113C455.175 116.675 455.333 122.717 455 135C455.778 155.569 451.218 162.292 435 166.5L434.5 168L434 178.5L468.5 186C477.337 188.81 480.038 194.355 483 207.5C487.649 212.282 489.454 215.019 491.5 220C513.863 229.76 522.319 235.197 530 244.5C535.441 252.659 537.729 257.39 541 266L551.5 303.5L557 321L565.5 343.5C567.39 347.658 568.132 349.969 568 354L572 376.5L575.5 398.5L576.5 402C581.329 421.795 582.585 432.837 584 452.5L587.5 470C590.293 476.166 591.06 479.559 591 485.5C597.177 505.827 597.348 511.943 593.5 515L232.5 515L233 501.5C228.794 500.737 227.012 499.241 225.5 493.5L227 479.5L230 447L232.5 408.5L233.5 376.5L234 357.5L233.5 339L233 328C228.942 315.294 225.153 308.735 214.5 298.5L185 277L157.5 256.5L140 238.5L121.5 218L105.5 195L102.5 189.5C95.1212 169.928 94.9742 160.541 106.5 149L115.5 143.5L126 138L130 136.5L131 137.5C139.514 131.614 144.734 128.834 155 125C162.273 121.81 166.557 120.658 174.5 119.5C179.713 117.783 182.789 117.149 188.5 116.5C194.436 116.22 197.723 116.645 203.5 118.5L223 113.5C232.536 109.979 236.889 111 242.5 117L257 116C275.233 114.587 287.022 112.711 298.5 104.5" stroke="#FF60E6" stroke-width="4"/>
</g>
<defs>
<clipPath id="clip0_1562_12">
<rect width="773" height="515" fill="white"/>
</clipPath>
</defs>
</svg>
