<svg width="247" height="516" viewBox="0 0 247 516" fill="none" xmlns="http://www.w3.org/2000/svg">
<path d="M43.5 376C26.8419 394.895 18.4457 408.281 12.9169 428.064C9.71689 439.515 7.97208 451.261 10.7743 462.815V462.815C14.6177 478.663 25.9002 492.843 40.1775 500.722C49.9069 506.091 59.793 507.546 74 507C98.0689 503.005 110.446 498.347 129.5 483.5C144.184 468.567 151.654 459.309 163 440.5C171.909 422.396 176.731 409.143 179.37 393.556C182.449 375.373 182.252 357.307 177.635 339.452V339.452C171.102 314.186 153.793 292.546 139.65 270.613C133.443 260.988 127.518 251.281 119.5 239.5C112.285 225.514 107.894 214.635 105.061 203.768C99.0691 180.78 99.2974 156.351 105.308 133.369V133.369C112.175 107.113 127.25 83.2854 146.36 64.016C154.229 56.0813 163.006 48.9582 175 41C199.467 26.0379 215.011 19.8823 246.5 13.5C266.43 7.8024 277.388 7.7176 296.5 13.5" stroke="#FFADF2" stroke-width="17" stroke-linecap="round" stroke-linejoin="round"/>
</svg>
