<svg width="625" height="129" viewBox="0 0 625 129" fill="none" xmlns="http://www.w3.org/2000/svg">
<path d="M512.104 103.247L585.604 93.7473C601.648 90.8402 608.694 87.6289 618.104 79.2473C621.997 70.5335 621.898 65.7032 615.104 57.2473C610.651 51.3429 607.416 48.1954 598.604 43.2473C568.608 28.431 551.343 23.1984 519.604 20.2473C485.436 15.6772 466.786 13.4752 434.604 10.2473C399.085 6.85601 378.708 5.57502 341.604 4.24733C309.13 3.75368 291.066 3.95578 259.104 5.24733C231.884 5.98347 216.246 6.96483 187.604 9.74733C159.734 12.9675 144.489 15.2293 118.104 20.2473C94.2823 25.7147 80.9262 28.78 57.1043 34.2473C42.2424 38.62 34.6812 41.5103 23.1043 47.7473C15.3324 52.2928 11.7608 55.1396 8.10426 61.2473C2.83682 71.5485 2.43078 76.9693 8.10426 85.7473C16.0899 95.1296 21.2294 98.8655 31.6043 102.747C49.9865 110.751 60.4986 113.856 79.6043 117.247C101.65 121.495 114.124 122.986 136.604 124.247L186.604 124.747L258.604 120.747L322.604 116.747L390.604 113.247L445.104 111.247L485.604 110.747" stroke="#FF60E6" stroke-width="8" stroke-linecap="round" stroke-linejoin="round"/>
</svg>
