<svg width="623" height="599" viewBox="0 0 623 599" fill="none" xmlns="http://www.w3.org/2000/svg">
<path d="M-27.001 362.037C-36.088 341.985 -39.9666 330.608 -44.501 310.037C-50.2966 275.471 -50.156 256.347 -46.001 222.537C-39.5033 190.78 -34.401 173.1 -19.7617 142.037C-7.7073 118.382 0.306732 105.679 17.9989 84.537C37.0349 63.3499 48.9834 52.4402 72.9989 35.037C92.8264 21.1622 105.37 15.5109 129.499 8.03702C152.655 3.29314 165.295 2.64845 186.999 6.53702C213.064 12.3226 225.329 18.6909 243.499 35.037C261.369 53.295 268.914 64.1096 277.499 84.537C285.108 107.196 287.384 119.425 288.499 140.537C289.204 166.298 288.807 180.656 285.999 206.037C282.087 240.215 280.189 259.375 277.999 293.537C276.607 330.419 276.813 351.031 280.999 387.537C284.631 414.961 287.905 430.277 294.999 457.537C303.303 482.951 310.071 496.768 323.999 521.037C340.407 543.5 351.214 554.114 372.499 570.537C393.154 583.231 404.986 587.765 426.499 591.037C452.446 595.914 467.519 596.131 496.499 586.537C520.798 576.812 532.277 570.221 550.999 557.537C579.933 538.786 594.481 527.177 618.999 505.537" stroke="#FF60E6" stroke-width="8" stroke-linecap="round" stroke-linejoin="round"/>
</svg>
