<svg width="111" height="130" viewBox="0 0 111 130" fill="none" xmlns="http://www.w3.org/2000/svg">
<g clip-path="url(#clip0_148_47)">
<path d="M60.9135 121.796C70.0374 117.747 74.1636 107.072 70.1239 97.9689L62.8056 81.4771L46.2768 88.8118C37.1529 92.8605 33.0267 103.535 37.0664 112.638C41.1061 121.742 51.7896 125.844 60.9135 121.796Z" fill="#0ACF83"/>
<path d="M22.4297 79.655C18.39 70.5514 22.5163 59.8771 31.6402 55.8284L48.1689 48.4937L62.8056 81.4774L46.2768 88.8121C37.1529 92.8609 26.4694 88.7585 22.4297 79.655Z" fill="#A259FF"/>
<path d="M7.79312 46.6711C3.7534 37.5676 7.87968 26.8933 17.0036 22.8445L33.5323 15.5098L48.169 48.4935L31.6402 55.8282C22.5163 59.877 11.8328 55.7746 7.79312 46.6711Z" fill="#F24E1E"/>
<path d="M33.5323 15.5098L50.0611 8.17506C59.185 4.1263 69.8685 8.2287 73.9082 17.3322C77.948 26.4357 73.8217 37.11 64.6978 41.1588L48.169 48.4935L33.5323 15.5098Z" fill="#FF7262"/>
<path d="M88.5448 50.3161C92.5846 59.4196 88.4583 70.0939 79.3344 74.1427C70.2105 78.1915 59.527 74.0891 55.4873 64.9855C51.4476 55.882 55.5738 45.2077 64.6977 41.1589C73.8216 37.1102 84.5051 41.2126 88.5448 50.3161Z" fill="#1ABCFE"/>
</g>
<defs>
<clipPath id="clip0_148_47">
<rect width="72.3469" height="108.256" fill="white" transform="translate(0.46814 30.1821) rotate(-23.9294)"/>
</clipPath>
</defs>
</svg>
