<svg width="275" height="275" viewBox="0 0 275 275" fill="none" xmlns="http://www.w3.org/2000/svg">
<path d="M199.8 7.45557H133.097H75.6671C63.2934 7.45557 50.874 10.155 40.5689 17.0042C27.5232 25.6748 19.1664 34.7423 12.338 49.2852C8.69555 57.0428 7.46094 65.6588 7.46094 74.229V202.408C7.46094 209.944 8.43158 217.506 11.207 224.512C18.1997 242.165 27.0995 252.042 42.7447 260.748C51.7672 265.769 62.1476 267.6 72.4731 267.6H133.097H200.514C209.344 267.6 218.206 266.239 226.228 262.551C245.233 253.813 255.092 243.635 263.054 225.67C266.478 217.945 267.707 209.461 267.707 201.012V75.7849C267.707 66.2028 266.107 56.5928 261.792 48.0373C253.023 30.6499 243.175 21.1038 226.769 13.0444C218.427 8.9463 209.094 7.45557 199.8 7.45557Z" stroke="black" stroke-width="13"/>
</svg>
