<svg width="287" height="287" viewBox="0 0 287 287" fill="none" xmlns="http://www.w3.org/2000/svg">
<path d="M237.475 66.8865C237.475 76.4177 229.735 84.0987 220.256 84.0987C210.721 84.0987 203.037 76.3616 203.037 66.8865C203.037 57.3553 210.777 49.6743 220.256 49.6743C229.735 49.6743 237.475 57.4114 237.475 66.8865Z" fill="black"/>
<path d="M205.8 13.4556H139.097H81.6671C69.2934 13.4556 56.874 16.155 46.5689 23.0042C33.5232 31.6748 25.1664 40.7423 18.338 55.2852C14.6956 63.0428 13.4609 71.6588 13.4609 80.229V208.408C13.4609 215.944 14.4316 223.506 17.207 230.512C24.1997 248.165 33.0995 258.042 48.7447 266.748C57.7672 271.769 68.1476 273.6 78.4731 273.6H139.097H206.514C215.344 273.6 224.206 272.239 232.228 268.551C251.233 259.813 261.092 249.635 269.054 231.67C272.478 223.945 273.707 215.461 273.707 207.012V81.7849C273.707 72.2028 272.107 62.5928 267.792 54.0373C259.023 36.6499 249.175 27.1038 232.769 19.0444C224.427 14.9463 215.094 13.4556 205.8 13.4556Z" stroke="black" stroke-width="13"/>
<path d="M197.428 148.013C196.054 121.031 188.63 105.354 169.772 96.895C150.623 88.3051 127.724 89.1557 108.631 97.8693C95.7677 103.74 87.8237 112.823 83.7173 128.679C80.4523 141.285 80.7349 157.196 85.1149 169.459C100.579 212.758 182.032 213.047 194.464 168.783C196.065 163.083 197.03 156.274 197.428 148.013Z" stroke="black" stroke-width="13"/>
</svg>
