<svg width="595" height="706" viewBox="0 0 595 706" fill="none" xmlns="http://www.w3.org/2000/svg">
<path d="M6.99999 43.5C19.2931 35.7098 26.4274 31.6521 40 25.5C59.0312 17.4502 70.2153 14.1089 91 10C112.484 6.46423 124.673 5.96623 146.5 7.50005C170.867 10.8884 183.74 13.9682 204 23.5C220.691 33.1916 228.465 39.7613 239.5 53.5C248.807 67.7053 251.788 75.6997 254 90C255.307 104.365 254.05 112.251 248.5 126C239.264 142.016 232.789 150.111 219 163L171 203.5L136 234C112.09 256.376 100.098 269.184 81 292.5C65.1834 311.969 57.1111 322.989 45.5 343C31.212 368.5 25.2052 382.839 17.5 408.5C9.79478 433.792 7.56219 448.016 6.99999 473.5C5.72016 500.997 7.37691 516.325 14 543.5C23.5859 575.042 31.2303 591.769 51 619C76.9197 650.392 94.1383 664.088 129.5 682C162.034 696.737 181.966 700.144 220 699C261.947 695.906 283.933 691.531 317.5 674C343.955 656.197 358.05 645.74 381.5 626C401.448 611.414 413.824 605.141 440 600.5C469.912 597.471 485.56 598.676 510.5 608.5C531.644 617.676 541.54 624.142 555 638.5C577.189 659.114 583.112 671.451 589 694" stroke="#FF60E6" stroke-width="12" stroke-linecap="round"/>
</svg>
