<svg width="372" height="468" viewBox="0 0 372 468" fill="none" xmlns="http://www.w3.org/2000/svg">
<path d="M366.5 5C349.313 18.0551 337.972 22.982 314 26.5C269.471 29.7054 251.674 32.5727 231 38.5C198.149 47.5521 181.451 55.4433 155 75C130.369 97.1124 121.945 111.908 113 141C104.229 176.947 111.252 196.223 132 230L192.5 303.5C195.261 307.25 197.714 310.747 199.912 314.106C219.237 343.633 225.322 382.474 210.5 414.5V414.5C199.401 432.505 191.11 440.755 173 452.5C152.785 462.082 139.787 464.132 113.5 461.5C90.1069 455.958 78.2315 450.374 58.5 437.5C44.234 427.464 37.2849 421.024 26.5 408C16.4231 394.774 11.4727 386.852 5 371" stroke="#FFADF2" stroke-width="10" stroke-linecap="round"/>
</svg>
